<svg xmlns="http://www.w3.org/2000/svg" viewBox="-140.0 -140.2 280.0 280.3" style="background-color:hsl(287.1920937349431,100%,11.850000000000001%)"><polyline points="44.1,34.9 43.2,34.0 42.3,33.0 41.4,32.1 40.5,31.1 39.7,30.2 38.8,29.2 38.0,28.2 37.2,27.1 36.4,26.1 35.6,25.1 34.8,24.0 34.0,23.0 33.2,21.9 32.4,20.8 31.7,19.7 30.9,18.6 30.2,17.5 29.5,16.3 28.8,15.2 28.1,14.0 27.4,12.9 26.7,11.7 26.1,10.5 25.4,9.3 24.8,8.1 24.2,6.9 23.6,5.7 23.0,4.5 22.4,3.2 21.8,2.0 21.3,0.8 20.8,-0.5 20.2,-1.8 19.7,-3.0 19.2,-4.3 18.8,-5.6 18.3,-6.9 17.9,-8.2 17.4,-9.4 17.0,-10.7 16.6,-12.1 16.2,-13.4 15.8,-14.7 15.5,-16.0 15.1,-17.3 14.8,-18.6 14.5,-19.9 14.2,-21.3 13.9,-22.6 13.7,-23.9 13.4,-25.3 13.2,-26.6 13.0,-27.9 12.8,-29.3 12.6,-30.6 12.4,-31.9 12.3,-33.3 12.1,-34.6 12.0,-35.9 11.9,-37.2 11.8,-38.6 11.7,-39.9 11.7,-41.2 11.6,-42.5 11.6,-43.8 11.6,-45.2 11.6,-46.5 11.6,-47.8 11.7,-49.1 11.7,-50.4 11.8,-51.7 11.9,-52.9 12.0,-54.2 12.1,-55.5 12.2,-56.8 12.3,-58.0 12.5,-59.3 12.7,-60.5 12.9,-61.8 13.1,-63.0 13.3,-64.2 13.5,-65.4 13.8,-66.6 14.0,-67.8 14.3,-69.0 14.6,-70.2 14.9,-71.4 15.2,-72.5 15.5,-73.7 15.9,-74.8 16.2,-76.0 16.6,-77.1 17.0,-78.2 17.4,-79.3 17.8,-80.4 18.2,-81.5 18.6,-82.5 19.0,-83.6 19.5,-84.6 20.0,-85.6 20.4,-86.6 20.9,-87.6 21.4,-88.6 21.9,-89.6 22.5,-90.5 23.0,-91.5 23.5,-92.4 24.1,-93.3 24.6,-94.2 25.2,-95.1 25.8,-96.0 26.4,-96.8 26.9,-97.7 27.5,-98.5 28.2,-99.3 28.8,-100.1 29.4,-100.8 30.0,-101.6 30.7,-102.3 31.3,-103.1 32.0,-103.8 32.6,-104.5 33.3,-105.1 34.0,-105.8 34.6,-106.4 35.3,-107.0 36.0,-107.7 36.7,-108.2 37.4,-108.8 38.1,-109.4 38.8,-109.9 39.5,-110.4 40.2,-110.9 40.9,-111.4 41.6,-111.8 42.3,-112.3 43.1,-112.7 43.8,-113.1 44.5,-113.5 45.2,-113.9 46.0,-114.2 46.7,-114.5 47.4,-114.8 48.1,-115.1 48.8,-115.4 49.6,-115.7 50.3,-115.9 51.0,-116.1 51.7,-116.3 52.4,-116.5 53.2,-116.6 53.9,-116.8 54.6,-116.9 55.3,-117.0 56.0,-117.1 56.7,-117.2 57.4,-117.2 58.1,-117.2 58.8,-117.3 59.4,-117.3 60.1,-117.2 60.8,-117.2 61.5,-117.1 62.1,-117.0 62.8,-116.9 63.4,-116.8 64.1,-116.7 64.7,-116.5 65.3,-116.4 65.9,-116.2 66.5,-116.0 67.1,-115.8 67.7,-115.5 68.3,-115.3 68.9,-115.0 69.5,-114.7 70.0,-114.4 70.6,-114.1 71.1,-113.7 71.6,-113.4 72.1,-113.0 72.6,-112.6 73.1,-112.2 73.6,-111.8 74.1,-111.4 74.5,-110.9 75.0,-110.5 75.4,-110.0 75.8,-109.5 76.3,-109.0 76.7,-108.5 77.0,-107.9 77.4,-107.4 77.8,-106.8 78.1,-106.2 78.4,-105.6 78.8,-105.0 79.1,-104.4 79.3,-103.8 79.6,-103.2 79.9,-102.5 80.1,-101.8 80.3,-101.2 80.5,-100.5 80.7,-99.8 80.9,-99.1 81.1,-98.4 81.2,-97.6 81.4,-96.9 81.5,-96.1 81.6,-95.4 81.7,-94.6 81.7,-93.8 81.8,-93.1 81.8,-92.3 81.8,-91.5 81.8,-90.7 81.8,-89.9 81.8,-89.0 81.7,-88.2 81.7,-87.4 81.6,-86.5 81.5,-85.7 81.4,-84.8 81.2,-84.0 81.1,-83.1 80.9,-82.2 80.7,-81.4 80.5,-80.5 80.3,-79.6 80.0,-78.7 79.7,-77.8 79.5,-76.9 79.2,-76.0 78.8,-75.2 78.5,-74.3 78.2,-73.4 77.8,-72.5 77.4,-71.6 77.0,-70.6 76.6,-69.7 76.1,-68.8 75.7,-67.9 75.2,-67.0 74.7,-66.1 74.2,-65.2 73.6,-64.3 73.1,-63.4 72.5,-62.5 71.9,-61.6 71.3,-60.7 70.7,-59.8 70.1,-59.0 69.4,-58.1 68.8,-57.2 68.1,-56.3 67.4,-55.4 66.7,-54.6 65.9,-53.7 65.2,-52.9 64.4,-52.0 63.6,-51.2 62.8,-50.3 62.0,-49.5 61.2,-48.6 60.3,-47.8 59.4,-47.0 58.6,-46.2 57.7,-45.4 56.8,-44.6 55.8,-43.8 54.9,-43.0 53.9,-42.3 53.0,-41.5 52.0,-40.8 51.0,-40.0 50.0,-39.3 49.0,-38.6 47.9,-37.8 46.9,-37.1 45.8,-36.4 44.8,-35.8 43.7,-35.1 42.6,-34.4 41.5,-33.8 40.3,-33.1 39.2,-32.5 38.1,-31.9 36.9,-31.3 35.7,-30.7 34.6,-30.1 33.4,-29.6 32.2,-29.0 31.0,-28.5 29.8,-27.9 28.5,-27.4 27.3,-26.9 26.1,-26.4 24.8,-26.0 23.6,-25.5 22.3,-25.0 21.0,-24.6 19.8,-24.2 18.5,-23.8 17.2,-23.4 15.9,-23.0 14.6,-22.7 13.3,-22.3 11.9,-22.0 10.6,-21.7 9.3,-21.4 8.0,-21.1 6.6,-20.8 5.3,-20.6 3.9,-20.3 2.6,-20.1 1.2,-19.9 -0.1,-19.7 -1.5,-19.5 -2.3,-19.4 -2.8,-19.3 -4.2,-19.2 -5.5,-19.1 -6.9,-18.9 -8.3,-18.8 -9.6,-18.8 -11.0,-18.7 -12.3,-18.6 -13.7,-18.6 -15.1,-18.6 -16.4,-18.6 -17.8,-18.6 -19.1,-18.6 -20.5,-18.7 -21.8,-18.7 -23.2,-18.8 -24.5,-18.9 -25.9,-19.0 -27.2,-19.1 -28.6,-19.2 -29.9,-19.4 -31.2,-19.5 -32.5,-19.7 -33.8,-19.9 -35.2,-20.1 -36.5,-20.3 -37.8,-20.6 -39.1,-20.8 -40.3,-21.1 -41.6,-21.4 -42.9,-21.7 -44.2,-22.0 -45.4,-22.3 -46.7,-22.7 -47.9,-23.0 -49.2,-23.4 -50.4,-23.8 -51.6,-24.2 -52.8,-24.6 -54.0,-25.0 -55.2,-25.4 -56.4,-25.9 -57.5,-26.3 -58.7,-26.8 -59.8,-27.3 -61.0,-27.8 -62.1,-28.3 -63.2,-28.8 -64.3,-29.4 -65.4,-29.9 -66.4,-30.5 -67.5,-31.0 -68.5,-31.6 -69.6,-32.2 -70.6,-32.8 -71.6,-33.4 -72.6,-34.0 -73.6,-34.7 -74.5,-35.3 -75.5,-35.9 -76.4,-36.6 -77.4,-37.3 -78.3,-37.9 -79.2,-38.6 -80.0,-39.3 -80.9,-40.0 -81.7,-40.7 -82.6,-41.4 -83.4,-42.1 -84.2,-42.9 -85.0,-43.6 -85.7,-44.3 -86.5,-45.1 -87.2,-45.8 -87.9,-46.6 -88.6,-47.3 -89.3,-48.1 -90.0,-48.9 -90.6,-49.7 -91.2,-50.4 -91.9,-51.2 -92.5,-52.0 -93.0,-52.8 -93.6,-53.6 -94.1,-54.4 -94.7,-55.2 -95.2,-56.0 -95.6,-56.8 -96.1,-57.6 -96.6,-58.4 -97.0,-59.2 -97.4,-60.0 -97.8,-60.8 -98.2,-61.6 -98.5,-62.4 -98.9,-63.2 -99.2,-64.0 -99.5,-64.8 -99.8,-65.6 -100.1,-66.4 -100.3,-67.2 -100.6,-68.0 -100.8,-68.8 -101.0,-69.5 -101.1,-70.3 -101.3,-71.1 -101.4,-71.9 -101.6,-72.6 -101.7,-73.4 -101.7,-74.2 -101.8,-74.9 -101.9,-75.7 -101.9,-76.4 -101.9,-77.2 -101.9,-77.9 -101.9,-78.6 -101.8,-79.3 -101.8,-80.0 -101.7,-80.7 -101.6,-81.4 -101.5,-82.1 -101.4,-82.8 -101.2,-83.5 -101.1,-84.1 -100.9,-84.8 -100.7,-85.4 -100.5,-86.1 -100.3,-86.7 -100.0,-87.3 -99.7,-87.9 -99.5,-88.5 -99.2,-89.1 -98.9,-89.7 -98.6,-90.2 -98.2,-90.8 -97.9,-91.3 -97.5,-91.8 -97.1,-92.3 -96.7,-92.8 -96.3,-93.3 -95.9,-93.8 -95.4,-94.2 -95.0,-94.7 -94.5,-95.1 -94.1,-95.5 -93.6,-95.9 -93.1,-96.3 -92.5,-96.7 -92.0,-97.1 -91.5,-97.4 -90.9,-97.7 -90.4,-98.1 -89.8,-98.4 -89.2,-98.6 -88.6,-98.9 -88.0,-99.2 -87.4,-99.4 -86.7,-99.6 -86.1,-99.8 -85.4,-100.0 -84.8,-100.2 -84.1,-100.3 -83.4,-100.5 -82.8,-100.6 -82.1,-100.7 -81.4,-100.8 -80.7,-100.8 -79.9,-100.9 -79.2,-100.9 -78.5,-100.9 -77.7,-100.9 -77.0,-100.9 -76.3,-100.9 -75.5,-100.8 -74.7,-100.8 -74.0,-100.7 -73.2,-100.6 -72.4,-100.4 -71.6,-100.3 -70.9,-100.1 -70.1,-99.9 -69.3,-99.7 -68.5,-99.5 -67.7,-99.3 -66.9,-99.0 -66.1,-98.7 -65.3,-98.5 -64.5,-98.1 -63.7,-97.8 -62.9,-97.5 -62.1,-97.1 -61.3,-96.7 -60.4,-96.3 -59.6,-95.9 -58.8,-95.5 -58.0,-95.0 -57.2,-94.5 -56.4,-94.0 -55.6,-93.5 -54.8,-93.0 -54.0,-92.4 -53.2,-91.9 -52.4,-91.3 -51.6,-90.7 -50.8,-90.1 -50.1,-89.4 -49.3,-88.8 -48.5,-88.1 -47.7,-87.4 -47.0,-86.7 -46.2,-86.0 -45.5,-85.3 -44.7,-84.5 -44.0,-83.7 -43.2,-83.0 -42.5,-82.1 -41.8,-81.3 -41.1,-80.5 -40.4,-79.6 -39.7,-78.8 -39.0,-77.9 -38.3,-77.0 -37.6,-76.1 -36.9,-75.2 -36.3,-74.2 -35.6,-73.3 -35.0,-72.3 -34.3,-71.3 -33.7,-70.3 -33.1,-69.3 -32.5,-68.3 -31.9,-67.2 -31.3,-66.2 -30.8,-65.1 -30.2,-64.0 -29.7,-62.9 -29.1,-61.8 -28.6,-60.7 -28.1,-59.6 -27.6,-58.5 -27.1,-57.3 -26.6,-56.2 -26.2,-55.0 -25.7,-53.8 -25.3,-52.6 -24.8,-51.4 -24.4,-50.2 -24.0,-49.0 -23.7,-47.8 -23.3,-46.5 -22.9,-45.3 -22.6,-44.0 -22.2,-42.8 -21.9,-41.5 -21.6,-40.2 -21.3,-38.9 -21.1,-37.7 -20.8,-36.4 -20.6,-35.1 -20.3,-33.7 -20.1,-32.4 -19.9,-31.1 -19.8,-29.8 -19.6,-28.5 -19.4,-27.1 -19.3,-25.8 -19.2,-24.4 -19.1,-23.1 -19.0,-21.8 -18.9,-20.4 -18.8,-19.1 -18.8,-17.7 -18.8,-16.3 -18.8,-15.0 -18.8,-13.6 -18.8,-12.3 -18.8,-10.9 -18.9,-9.5 -18.9,-8.2 -19.0,-6.8 -19.1,-5.4 -19.2,-4.1 -19.4,-2.7 -19.5,-1.4 -19.7,-0.0 -19.8,1.3 -20.0,2.7 -20.2,4.0 -20.5,5.4 -20.7,6.7 -21.0,8.1 -21.2,9.4 -21.5,10.7 -21.8,12.1 -22.1,13.4 -22.4,14.7 -22.8,16.0 -23.1,17.3 -23.5,18.6 -23.9,19.9 -24.3,21.2 -24.7,22.5 -25.2,23.7 -25.6,25.0 -26.1,26.3 -26.5,27.5 -27.0,28.7 -27.5,30.0 -28.0,31.2 -28.5,32.4 -29.1,33.6 -29.6,34.8 -30.2,36.0 -30.8,37.2 -31.4,38.3 -32.0,39.5 -32.6,40.6 -33.2,41.8 -33.8,42.9 -34.5,44.0 -35.1,45.1 -35.8,46.2 -36.5,47.2 -37.2,48.3 -37.9,49.3 -38.6,50.4 -39.3,51.4 -40.0,52.4 -40.8,53.4 -41.5,54.4 -42.3,55.3 -43.0,56.3 -43.8,57.2 -44.6,58.1 -45.4,59.0 -46.2,59.9 -47.0,60.8 -47.8,61.7 -48.6,62.5 -49.4,63.3 -50.3,64.1 -51.1,64.9 -52.0,65.7 -52.8,66.5 -53.7,67.2 -54.5,68.0 -55.4,68.7 -56.3,69.4 -57.1,70.1 -58.0,70.7 -58.9,71.4 -59.8,72.0 -60.6,72.6 -61.5,73.2 -62.4,73.8 -63.3,74.4 -64.2,74.9 -65.1,75.4 -66.0,75.9 -66.9,76.4 -67.8,76.9 -68.7,77.4 -69.6,77.8 -70.5,78.2 -71.4,78.6 -72.3,79.0 -73.2,79.4 -74.1,79.7 -75.0,80.1 -75.9,80.4 -76.8,80.7 -77.6,80.9 -78.5,81.2 -79.4,81.4 -80.3,81.7 -81.1,81.9 -82.0,82.1 -82.9,82.2 -83.7,82.4 -84.6,82.5 -85.4,82.6 -86.3,82.7 -87.1,82.8 -87.9,82.9 -88.8,82.9 -89.6,82.9 -90.4,83.0 -91.2,82.9 -92.0,82.9 -92.8,82.9 -93.5,82.8 -94.3,82.8 -95.1,82.7 -95.8,82.6 -96.5,82.4 -97.3,82.3 -98.0,82.1 -98.7,82.0 -99.4,81.8 -100.1,81.6 -100.8,81.4 -101.4,81.1 -102.1,80.9 -102.7,80.6 -103.4,80.4 -104.0,80.1 -104.6,79.8 -105.2,79.4 -105.8,79.1 -106.4,78.8 -106.9,78.4 -107.4,78.0 -108.0,77.6 -108.5,77.2 -109.0,76.8 -109.5,76.4 -109.9,75.9 -110.4,75.5 -110.8,75.0 -111.3,74.6 -111.7,74.1 -112.1,73.6 -112.5,73.1 -112.8,72.5 -113.2,72.0 -113.5,71.5 -113.8,70.9 -114.1,70.4 -114.4,69.8 -114.7,69.2 -114.9,68.6 -115.1,68.0 -115.3,67.4 -115.5,66.8 -115.7,66.2 -115.9,65.5 -116.0,64.9 -116.2,64.3 -116.3,63.6 -116.4,63.0 -116.4,62.3 -116.5,61.6 -116.5,61.0 -116.5,60.3 -116.5,59.6 -116.5,58.9 -116.5,58.2 -116.4,57.5 -116.3,56.8 -116.2,56.1 -116.1,55.4 -116.0,54.7 -115.9,53.9 -115.7,53.2 -115.5,52.5 -115.3,51.8 -115.1,51.1 -114.8,50.3 -114.6,49.6 -114.3,48.9 -114.0,48.2 -113.7,47.4 -113.3,46.7 -113.0,46.0 -112.6,45.2 -112.2,44.5 -111.8,43.8 -111.4,43.1 -110.9,42.4 -110.4,41.6 -110.0,40.9 -109.5,40.2 -108.9,39.5 -108.4,38.8 -107.8,38.1 -107.3,37.4 -106.7,36.7 -106.1,36.0 -105.4,35.3 -104.8,34.7 -104.1,34.0 -103.4,33.3 -102.8,32.6 -102.0,32.0 -101.3,31.3 -100.6,30.7 -99.8,30.1 -99.0,29.4 -98.2,28.8 -97.4,28.2 -96.6,27.6 -95.7,27.0 -94.9,26.4 -94.0,25.8 -93.1,25.3 -92.2,24.7 -91.3,24.2 -90.4,23.6 -89.4,23.1 -88.5,22.6 -87.5,22.1 -86.5,21.6 -85.5,21.1 -84.5,20.6 -83.4,20.1 -82.4,19.7 -81.3,19.2 -80.3,18.8 -79.2,18.4 -78.1,18.0 -77.0,17.6 -75.9,17.2 -74.8,16.8 -73.6,16.5 -72.5,16.1 -71.3,15.8 -70.2,15.5 -69.0,15.2 -67.8,14.9 -66.6,14.6 -65.4,14.3 -64.2,14.1 -63.0,13.9 -61.7,13.6 -60.5,13.4 -59.3,13.2 -58.0,13.1 -56.7,12.9 -55.5,12.8 -54.2,12.6 -52.9,12.5 -51.6,12.4 -50.4,12.3 -49.1,12.3 -47.8,12.2 -46.5,12.2 -45.2,12.1 -43.8,12.1 -42.5,12.1 -41.2,12.2 -39.9,12.2 -38.6,12.3 -37.2,12.3 -35.9,12.4 -34.6,12.5 -33.2,12.6 -31.9,12.8 -30.6,12.9 -29.2,13.1 -27.9,13.3 -26.6,13.5 -25.2,13.7 -23.9,13.9 -22.6,14.2 -21.2,14.4 -19.9,14.7 -18.6,15.0 -17.3,15.3 -15.9,15.6 -14.6,16.0 -13.3,16.3 -12.0,16.7 -10.7,17.1 -9.4,17.5 -8.1,17.9 -6.8,18.3 -6.3,18.5 -5.5,18.8 -4.2,19.2 -2.9,19.7 -1.7,20.2 -0.4,20.7 0.9,21.2 2.1,21.8 3.4,22.3 4.6,22.9 5.9,23.4 7.1,24.0 8.3,24.6 9.5,25.2 10.7,25.9 11.9,26.5 13.1,27.2 14.3,27.8 15.4,28.5 16.6,29.2 17.7,29.9 18.8,30.6 20.0,31.4 21.1,32.1 22.2,32.8 23.3,33.6 24.3,34.4 25.4,35.2 26.4,36.0 27.5,36.8 28.5,37.6 29.5,38.4 30.5,39.2 31.5,40.1 32.5,40.9 33.5,41.8 34.4,42.7 35.3,43.5 36.3,44.4 37.2,45.3 38.1,46.2 38.9,47.1 39.8,48.0 40.6,49.0 41.5,49.9 42.3,50.8 43.1,51.8 43.9,52.7 44.6,53.7 45.4,54.6 46.1,55.6 46.8,56.6 47.5,57.5 48.2,58.5 48.9,59.5 49.6,60.5 50.2,61.5 50.8,62.4 51.4,63.4 52.0,64.4 52.6,65.4 53.1,66.4 53.7,67.4 54.2,68.4 54.7,69.4 55.2,70.4 55.7,71.4 56.1,72.4 56.5,73.4 57.0,74.4 57.4,75.4 57.7,76.4 58.1,77.4 58.5,78.4 58.8,79.4 59.1,80.4 59.4,81.4 59.7,82.4 59.9,83.4 60.2,84.3 60.4,85.3 60.6,86.3 60.8,87.2 61.0,88.2 61.1,89.2 61.3,90.1 61.4,91.0 61.5,92.0 61.6,92.9 61.6,93.8 61.7,94.8 61.7,95.7 61.7,96.6 61.8,97.5 61.7,98.3 61.7,99.2 61.7,100.1 61.6,100.9 61.5,101.8 61.4,102.6 61.3,103.5 61.2,104.3 61.1,105.1 60.9,105.9 60.7,106.7 60.6,107.5 60.4,108.2 60.1,109.0 59.9,109.7 59.7,110.5 59.4,111.2 59.1,111.9 58.8,112.6 58.5,113.3 58.2,113.9 57.9,114.6 57.6,115.2 57.2,115.8 56.9,116.4 56.5,117.0 56.1,117.6 55.7,118.2 55.3,118.7 54.9,119.3 54.4,119.8 54.0,120.3 53.5,120.8 53.0,121.3 52.6,121.7 52.1,122.2 51.6,122.6 51.1,123.0 50.6,123.4 50.0,123.8 49.5,124.1 49.0,124.5 48.4,124.8 47.8,125.1 47.3,125.4 46.7,125.7 46.1,125.9 45.5,126.2 44.9,126.4 44.3,126.6 43.7,126.8 43.1,126.9 42.5,127.1 41.9,127.2 41.2,127.3 40.6,127.4 40.0,127.5 39.3,127.5 38.7,127.6 38.0,127.6 37.4,127.6 36.7,127.5 36.1,127.5 35.4,127.4 34.7,127.4 34.1,127.3 33.4,127.1 32.7,127.0 32.1,126.8 31.4,126.7 30.7,126.5 30.1,126.3 29.4,126.0 28.7,125.8 28.1,125.5 27.4,125.2 26.7,124.9 26.1,124.6 25.4,124.2 24.7,123.9 24.1,123.5 23.4,123.1 22.8,122.7 22.1,122.2 21.5,121.8 20.9,121.3 20.2,120.8 19.6,120.3 19.0,119.8 18.4,119.2 17.7,118.7 17.1,118.1 16.5,117.5 15.9,116.9 15.3,116.2 14.8,115.6 14.2,114.9 13.6,114.2 13.1,113.5 12.5,112.8 12.0,112.1 11.4,111.3 10.9,110.5 10.4,109.8 9.9,109.0 9.4,108.2 8.9,107.3 8.4,106.5 7.9,105.6 7.5,104.7 7.0,103.9 6.6,103.0 6.2,102.0 5.8,101.1 5.4,100.2 5.0,99.2 4.6,98.2 4.2,97.3 3.9,96.3 3.5,95.3 3.2,94.2 2.9,93.2 2.6,92.2 2.3,91.1 2.0,90.0 1.7,89.0 1.5,87.9 1.2,86.8 1.0,85.7 0.8,84.5 0.6,83.4 0.4,82.3 0.3,81.1 0.1,80.0 -0.0,78.8 -0.2,77.6 -0.3,76.5 -0.4,75.3 -0.4,74.1 -0.5,72.9 -0.5,71.7 -0.6,70.5 -0.6,69.2 -0.6,68.0 -0.6,66.8 -0.5,65.5 -0.5,64.3 -0.4,63.0 -0.4,61.8 -0.3,60.5 -0.2,59.3 -0.0,58.0 0.1,56.7 0.3,55.5 0.4,54.2 0.6,52.9 0.8,51.7 1.1,50.4 1.3,49.1 1.6,47.8 1.8,46.5 2.1,45.3 2.4,44.0 2.7,42.7 3.1,41.4 3.4,40.1 3.8,38.9 4.2,37.6 4.6,36.3 5.0,35.0 5.4,33.8 5.9,32.5 6.3,31.2 6.8,30.0 7.3,28.7 7.8,27.5 8.3,26.2 8.9,25.0 9.4,23.7 10.0,22.5 10.6,21.3 11.2,20.1 11.8,18.8 12.4,17.6 13.1,16.4 13.7,15.2 14.4,14.0 15.1,12.9 15.8,11.7 16.5,10.5 17.2,9.4 17.9,8.2 18.7,7.1 19.4,5.9 20.2,4.8 21.0,3.7 21.8,2.6 22.6,1.5 23.4,0.4 24.3,-0.6 25.1,-1.7 26.0,-2.8 26.9,-3.8 27.7,-4.8 28.6,-5.8 29.5,-6.8 30.4,-7.8 31.4,-8.8 32.3,-9.8 33.2,-10.7 34.2,-11.7 35.1,-12.6 36.1,-13.5 37.1,-14.4 38.1,-15.3 39.1,-16.2 40.1,-17.1 41.1,-17.9 42.1,-18.7 43.1,-19.6 44.1,-20.4 45.2,-21.1 46.2,-21.9 47.3,-22.7 48.3,-23.4 49.4,-24.2 50.5,-24.9 51.5,-25.6 52.6,-26.2 53.7,-26.9 54.8,-27.6 55.8,-28.2 56.9,-28.8 58.0,-29.4 59.1,-30.0 60.2,-30.6 61.3,-31.1 62.4,-31.6 63.5,-32.2 64.6,-32.7 65.7,-33.2 66.8,-33.6 67.9,-34.1 69.0,-34.5 70.1,-34.9 71.2,-35.3 72.3,-35.7 73.4,-36.1 74.5,-36.4 75.6,-36.8 76.7,-37.1 77.8,-37.4 78.9,-37.7 80.0,-37.9 81.1,-38.2 82.2,-38.4 83.3,-38.6 84.3,-38.8 85.4,-39.0 86.5,-39.2 87.5,-39.3 88.6,-39.4 89.6,-39.6 90.7,-39.7 91.7,-39.7 92.7,-39.8 93.7,-39.8 94.7,-39.9 95.8,-39.9 96.7,-39.9 97.7,-39.9 98.7,-39.8 99.7,-39.8 100.7,-39.7 101.6,-39.7 102.6,-39.6 103.5,-39.5 104.4,-39.3 105.3,-39.2 106.2,-39.0 107.1,-38.9 108.0,-38.7 108.9,-38.5 109.7,-38.3 110.6,-38.1 111.4,-37.8 112.2,-37.6 113.0,-37.3 113.8,-37.0 114.6,-36.7 115.4,-36.4 116.2,-36.1 116.9,-35.8 117.6,-35.4 118.3,-35.1 119.0,-34.7 119.7,-34.3 120.4,-33.9 121.1,-33.5 121.7,-33.1 122.3,-32.7 122.9,-32.3 123.5,-31.8 124.1,-31.4 124.7,-30.9 125.2,-30.4 125.7,-29.9 126.3,-29.4 126.7,-28.9 127.2,-28.4 127.7,-27.9 128.1,-27.4 128.6,-26.9 129.0,-26.3 129.4,-25.8 129.7,-25.2 130.1,-24.7 130.4,-24.1 130.7,-23.5 131.0,-22.9 131.3,-22.3 131.6,-21.7 131.8,-21.2 132.1,-20.5 132.3,-19.9 132.5,-19.3 132.6,-18.7 132.8,-18.1 132.9,-17.5 133.0,-16.9 133.1,-16.2 133.2,-15.6 133.3,-15.0 133.3,-14.3 133.3,-13.7 133.3,-13.1 133.3,-12.4 133.3,-11.8 133.2,-11.1 133.2,-10.5 133.1,-9.9 132.9,-9.2 132.8,-8.6 132.7,-8.0 132.5,-7.3 132.3,-6.7 132.1,-6.1 131.9,-5.4 131.6,-4.8 131.3,-4.2 131.1,-3.6 130.8,-2.9 130.4,-2.3 130.1,-1.7 129.7,-1.1 129.4,-0.5 129.0,0.1 128.5,0.7 128.1,1.2 127.7,1.8 127.2,2.4 126.7,3.0 126.2,3.5 125.7,4.1 125.1,4.6 124.6,5.2 124.0,5.7 123.4,6.2 122.8,6.7 122.2,7.2 121.5,7.7 120.9,8.2 120.2,8.7 119.5,9.2 118.8,9.6 118.1,10.1 117.4,10.5 116.6,11.0 115.8,11.4 115.1,11.8 114.3,12.2 113.5,12.6 112.6,13.0 111.8,13.3 110.9,13.7 110.1,14.0 109.2,14.3 108.3,14.7 107.4,15.0 106.5,15.2 105.5,15.5 104.6,15.8 103.6,16.0 102.7,16.3 101.7,16.5 100.7,16.7 99.7,16.9 98.7,17.1 97.7,17.3 96.7,17.4 95.6,17.5 94.6,17.7 93.5,17.8 92.4,17.9 91.3,17.9 90.3,18.0 89.2,18.1 88.1,18.1 87.0,18.1 85.8,18.1 84.7,18.1 83.6,18.1 82.4,18.0 81.3,18.0 80.1,17.9 79.0,17.8 77.8,17.7 76.7,17.5 75.5,17.4 74.3,17.2 73.1,17.1 72.0,16.9 70.8,16.7 69.6,16.4 68.4,16.2 67.2,15.9 66.0,15.7 64.8,15.4 63.6,15.1 62.4,14.7 61.2,14.4 60.0,14.0 58.8,13.7 57.6,13.3 56.4,12.9 55.2,12.5 54.0,12.0 52.8,11.6 51.6,11.1 50.4,10.6 49.2,10.1 48.0,9.6 46.8,9.0 45.6,8.5 44.4,7.9 43.3,7.3 42.1,6.7 40.9,6.1 39.7,5.5 38.6,4.9 37.4,4.2 36.3,3.5 35.1,2.8 34.0,2.1 32.8,1.4 31.7,0.7 30.6,-0.1 29.5,-0.8 28.4,-1.6 27.3,-2.4 26.2,-3.2 25.1,-4.0 24.0,-4.9 23.0,-5.7 21.9,-6.6 20.8,-7.4 19.8,-8.3 18.8,-9.2 17.8,-10.1 16.8,-11.0 15.8,-12.0 14.8,-12.9 13.8,-13.8 13.7,-13.9 12.8,-14.8 11.9,-15.8 10.9,-16.8 10.0,-17.8 9.1,-18.8 8.2,-19.8 7.3,-20.8 6.4,-21.9 5.5,-22.9 4.7,-24.0 3.8,-25.0 3.0,-26.1 2.2,-27.2 1.4,-28.3 0.6,-29.4 -0.2,-30.5 -1.0,-31.6 -1.7,-32.7 -2.5,-33.8 -3.2,-35.0 -3.9,-36.1 -4.6,-37.2 -5.3,-38.4 -5.9,-39.5 -6.6,-40.7 -7.2,-41.9 -7.8,-43.0 -8.4,-44.2 -9.0,-45.4 -9.6,-46.6 -10.1,-47.7 -10.6,-48.9 -11.2,-50.1 -11.7,-51.3 -12.2,-52.5 -12.6,-53.7 -13.1,-54.9 -13.5,-56.1 -13.9,-57.3 -14.3,-58.5 -14.7,-59.7 -15.1,-60.9 -15.5,-62.1 -15.8,-63.3 -16.1,-64.5 -16.4,-65.7 -16.7,-66.9 -17.0,-68.1 -17.3,-69.2 -17.5,-70.4 -17.7,-71.6 -17.9,-72.8 -18.1,-74.0 -18.3,-75.1 -18.5,-76.3 -18.6,-77.5 -18.7,-78.6 -18.8,-79.8 -18.9,-80.9 -19.0,-82.1 -19.1,-83.2 -19.1,-84.4 -19.2,-85.5 -19.2,-86.6 -19.2,-87.7 -19.2,-88.8 -19.1,-89.9 -19.1,-91.0 -19.0,-92.1 -18.9,-93.2 -18.8,-94.2 -18.7,-95.3 -18.6,-96.3 -18.5,-97.4 -18.3,-98.4 -18.1,-99.4 -18.0,-100.4 -17.8,-101.4 -17.6,-102.4 -17.3,-103.3 -17.1,-104.3 -16.8,-105.2 -16.6,-106.2 -16.3,-107.1 -16.0,-108.0 -15.7,-108.9 -15.4,-109.8 -15.1,-110.7 -14.7,-111.5 -14.4,-112.4 -14.0,-113.2 -13.6,-114.0 -13.2,-114.8 -12.8,-115.6 -12.4,-116.4 -12.0,-117.1 -11.6,-117.9 -11.1,-118.6 -10.7,-119.3 -10.2,-120.0 -9.8,-120.7 -9.3,-121.4 -8.8,-122.0 -8.3,-122.6 -7.8,-123.3 -7.3,-123.9 -6.7,-124.4 -6.2,-125.0 -5.7,-125.6 -5.1,-126.1 -4.6,-126.6 -4.0,-127.1 -3.5,-127.6 -2.9,-128.0 -2.3,-128.5 -1.7,-128.9 -1.1,-129.3 -0.5,-129.7 0.1,-130.1 0.7,-130.4 1.3,-130.7 1.9,-131.1 2.5,-131.4 3.1,-131.6 3.8,-131.9 4.4,-132.1 5.0,-132.3 5.6,-132.5 6.3,-132.7 6.9,-132.9 7.5,-133.0 8.2,-133.2 8.8,-133.3 9.4,-133.3 10.1,-133.4 10.7,-133.5 11.4,-133.5 12.0,-133.5 12.6,-133.5 13.3,-133.5 13.9,-133.4 14.5,-133.3 15.2,-133.3 15.8,-133.1 16.4,-133.0 17.0,-132.9 17.6,-132.7 18.3,-132.5 18.9,-132.3 19.5,-132.1 20.1,-131.9 20.7,-131.6 21.3,-131.4 21.8,-131.1 22.4,-130.7 23.0,-130.4 23.6,-130.1 24.1,-129.7 24.7,-129.3 25.2,-128.9 25.8,-128.5 26.3,-128.1 26.8,-127.6 27.3,-127.1 27.8,-126.7 28.3,-126.2 28.8,-125.6 29.3,-125.1 29.8,-124.5 30.3,-124.0 30.7,-123.4 31.1,-122.8 31.6,-122.2 32.0,-121.5 32.4,-120.9 32.8,-120.2 33.2,-119.5 33.6,-118.8 33.9,-118.1 34.3,-117.4 34.6,-116.7 35.0,-115.9 35.3,-115.2 35.6,-114.4 35.9,-113.6 36.2,-112.8 36.4,-112.0 36.7,-111.1 36.9,-110.3 37.1,-109.4 37.3,-108.6 37.5,-107.7 37.7,-106.8 37.9,-105.9 38.0,-105.0 38.2,-104.1 38.3,-103.1 38.4,-102.2 38.5,-101.2 38.6,-100.3 38.6,-99.3 38.7,-98.3 38.7,-97.3 38.7,-96.3 38.7,-95.3 38.7,-94.3 38.7,-93.3 38.6,-92.3 38.5,-91.2 38.5,-90.2 38.4,-89.2 38.2,-88.1 38.1,-87.0 38.0,-86.0 37.8,-84.9 37.6,-83.8 37.4,-82.8 37.2,-81.7 37.0,-80.6 36.7,-79.5 36.5,-78.4 36.2,-77.3 35.9,-76.2 35.6,-75.1 35.2,-74.0 34.9,-72.9 34.5,-71.8 34.1,-70.7 33.7,-69.6 33.3,-68.5 32.9,-67.4 32.4,-66.2 31.9,-65.1 31.4,-64.0 30.9,-62.9 30.4,-61.8 29.9,-60.7 29.3,-59.6 28.8,-58.5 28.2,-57.4 27.6,-56.3 27.0,-55.2 26.3,-54.1 25.7,-53.0 25.0,-51.9 24.3,-50.9 23.6,-49.8 22.9,-48.7 22.2,-47.7 21.4,-46.6 20.7,-45.6 19.9,-44.5 19.1,-43.5 18.3,-42.4 17.5,-41.4 16.7,-40.4 15.8,-39.4 15.0,-38.4 14.1,-37.4 13.2,-36.4 12.3,-35.4 11.4,-34.4 10.4,-33.5 9.5,-32.5 8.5,-31.6 7.6,-30.6 6.6,-29.7 5.6,-28.8 4.6,-27.9 3.6,-27.0 2.6,-26.1 1.5,-25.2 0.5,-24.4 -0.6,-23.5 -1.7,-22.7 -2.8,-21.9 -3.8,-21.0 -4.9,-20.2 -6.1,-19.5 -7.2,-18.7 -8.3,-17.9 -9.5,-17.2 -10.6,-16.4 -11.8,-15.7 -12.9,-15.0 -14.1,-14.3 -15.3,-13.6 -16.5,-12.9 -17.7,-12.3 -18.9,-11.6 -20.1,-11.0 -21.3,-10.4 -22.5,-9.8 -23.7,-9.2 -25.0,-8.6 -26.2,-8.1 -27.4,-7.5 -28.7,-7.0 -29.9,-6.5 -31.2,-6.0 -32.4,-5.5 -33.7,-5.1 -35.0,-4.6 -36.2,-4.2 -37.5,-3.8 -38.8,-3.4 -40.0,-3.0 -41.3,-2.6 -42.6,-2.3 -43.9,-1.9 -45.1,-1.6 -46.4,-1.3 -47.7,-1.0 -49.0,-0.7 -50.3,-0.5 -51.5,-0.2 -52.8,-0.0 -54.1,0.2 -55.3,0.4 -56.6,0.6 -57.9,0.7 -59.1,0.9 -60.4,1.0 -61.6,1.1 -62.9,1.2 -64.1,1.3 -65.4,1.3 -66.6,1.4 -67.9,1.4 -69.1,1.4 -70.3,1.4 -71.5,1.4 -72.7,1.4 -73.9,1.3 -75.1,1.3 -76.3,1.2 -77.5,1.1 -78.7,1.0 -79.8,0.9 -81.0,0.7 -82.2,0.6 -83.3,0.4 -84.4,0.2 -85.5,0.1 -86.7,-0.2 -87.8,-0.4 -88.9,-0.6 -89.9,-0.9 -91.0,-1.1 -92.1,-1.4 -93.1,-1.7 -94.2,-2.0 -95.2,-2.3 -96.2,-2.6 -97.2,-3.0 -98.2,-3.3 -99.2,-3.7 -100.1,-4.1 -101.1,-4.5 -102.0,-4.9 -102.9,-5.3 -103.8,-5.7 -104.7,-6.2 -105.6,-6.6 -106.5,-7.1 -107.3,-7.5 -108.2,-8.0 -109.0,-8.5 -109.8,-9.0 -110.6,-9.5 -111.4,-10.0 -112.1,-10.5 -112.9,-11.1 -113.6,-11.6 -114.3,-12.2 -115.0,-12.7 -115.7,-13.3 -116.3,-13.9 -117.0,-14.4 -117.6,-15.0 -118.2,-15.6 -118.8,-16.2 -119.4,-16.8 -119.9,-17.4 -120.5,-18.1 -121.0,-18.7 -121.5,-19.3 -122.0,-19.9 -122.4,-20.6 -122.9,-21.2 -123.3,-21.9 -123.7,-22.5 -124.1,-23.1 -124.5,-23.8 -124.9,-24.5 -125.2,-25.1 -125.5,-25.8 -125.8,-26.4 -126.1,-27.1 -126.4,-27.8 -126.6,-28.4 -126.8,-29.1 -127.0,-29.8 -127.2,-30.4 -127.4,-31.1 -127.5,-31.8 -127.6,-32.4 -127.8,-33.1 -127.8,-33.8 -127.9,-34.4 -128.0,-35.1 -128.0,-35.7 -128.0,-36.4 -128.0,-37.0 -128.0,-37.7 -128.0,-38.3 -127.9,-39.0 -127.8,-39.6 -127.7,-40.2 -127.6,-40.9 -127.5,-41.5 -127.3,-42.1 -127.1,-42.7 -126.9,-43.3 -126.7,-43.9 -126.5,-44.5 -126.3,-45.1 -126.0,-45.7 -125.7,-46.2 -125.4,-46.8 -125.1,-47.4 -124.8,-47.9 -124.4,-48.5 -124.1,-49.0 -123.7,-49.5 -123.3,-50.0 -122.9,-50.5 -122.4,-51.0 -122.0,-51.5 -121.5,-52.0 -121.0,-52.4 -120.5,-52.9 -120.0,-53.3 -119.5,-53.8 -118.9,-54.2 -118.4,-54.6 -117.8,-55.0 -117.2,-55.4 -116.6,-55.8 -116.0,-56.1 -115.3,-56.5 -114.7,-56.8 -114.0,-57.1 -113.4,-57.4 -112.7,-57.7 -112.0,-58.0 -111.3,-58.3 -110.5,-58.5 -109.8,-58.8 -109.0,-59.0 -108.3,-59.2 -107.5,-59.4 -106.7,-59.6 -105.9,-59.8 -105.1,-59.9 -104.3,-60.0 -103.5,-60.2 -102.6,-60.3 -101.8,-60.4 -100.9,-60.4 -100.1,-60.5 -99.2,-60.5 -98.3,-60.6 -97.4,-60.6 -96.5,-60.6 -95.6,-60.5 -94.7,-60.5 -93.8,-60.4 -92.8,-60.4 -91.9,-60.3 -90.9,-60.2 -90.0,-60.0 -89.0,-59.9 -88.1,-59.7 -87.1,-59.6 -86.1,-59.4 -85.2,-59.2 -84.2,-58.9 -83.2,-58.7 -82.2,-58.4 -81.2,-58.1 -80.2,-57.8 -79.2,-57.5 -78.2,-57.2 -77.2,-56.8 -76.2,-56.5 -75.2,-56.1 -74.2,-55.7 -73.2,-55.3 -72.2,-54.8 -71.2,-54.4 -70.2,-53.9 -69.2,-53.4 -68.2,-52.9 -67.2,-52.4 -66.2,-51.8 -65.2,-51.3 -64.2,-50.7 -63.2,-50.1 -62.2,-49.5 -61.2,-48.9 -60.2,-48.3 -59.2,-47.6 -58.2,-46.9 -57.2,-46.2 -56.3,-45.5 -55.3,-44.8 -54.3,-44.1 -53.4,-43.3 -52.4,-42.5 -51.4,-41.7 -50.5,-40.9 -49.6,-40.1 -48.6,-39.3 -47.7,-38.4 -46.8,-37.6 -45.9,-36.7 -45.0,-35.8 -44.1,-34.9 -43.2,-34.0 -42.3,-33.0 -41.4,-32.1 -40.5,-31.1 -39.7,-30.2 -38.8,-29.2 -38.0,-28.2 -37.2,-27.1 -36.4,-26.1 -35.6,-25.1 -34.8,-24.0 -34.0,-23.0 -33.2,-21.9 -32.4,-20.8 -31.7,-19.7 -30.9,-18.6 -30.2,-17.5 -29.5,-16.3 -28.8,-15.2 -28.1,-14.0 -27.4,-12.9 -26.7,-11.7 -26.1,-10.5 -25.4,-9.3 -24.8,-8.1 -24.2,-6.9 -23.6,-5.7 -23.0,-4.5 -22.4,-3.2 -21.8,-2.0 -21.3,-0.8 -20.8,0.5 -20.2,1.8 -19.7,3.0 -19.2,4.3 -18.8,5.6 -18.4,6.6 -18.3,6.9 -17.9,8.2 -17.4,9.4 -17.0,10.7 -16.6,12.1 -16.2,13.4 -15.8,14.7 -15.5,16.0 -15.1,17.3 -14.8,18.6 -14.5,19.9 -14.2,21.3 -13.9,22.6 -13.7,23.9 -13.4,25.3 -13.2,26.6 -13.0,27.9 -12.8,29.3 -12.6,30.6 -12.4,31.9 -12.3,33.3 -12.1,34.6 -12.0,35.9 -11.9,37.2 -11.8,38.6 -11.7,39.9 -11.7,41.2 -11.6,42.5 -11.6,43.8 -11.6,45.2 -11.6,46.5 -11.6,47.8 -11.7,49.1 -11.7,50.4 -11.8,51.7 -11.9,52.9 -12.0,54.2 -12.1,55.5 -12.2,56.8 -12.3,58.0 -12.5,59.3 -12.7,60.5 -12.9,61.8 -13.1,63.0 -13.3,64.2 -13.5,65.4 -13.8,66.6 -14.0,67.8 -14.3,69.0 -14.6,70.2 -14.9,71.4 -15.2,72.5 -15.5,73.7 -15.9,74.8 -16.2,76.0 -16.6,77.1 -17.0,78.2 -17.4,79.3 -17.8,80.4 -18.2,81.5 -18.6,82.5 -19.0,83.6 -19.5,84.6 -20.0,85.6 -20.4,86.6 -20.9,87.6 -21.4,88.6 -21.9,89.6 -22.5,90.5 -23.0,91.5 -23.5,92.4 -24.1,93.3 -24.6,94.2 -25.2,95.1 -25.8,96.0 -26.4,96.8 -26.9,97.7 -27.5,98.5 -28.2,99.3 -28.8,100.1 -29.4,100.8 -30.0,101.6 -30.7,102.3 -31.3,103.1 -32.0,103.8 -32.6,104.5 -33.3,105.1 -34.0,105.8 -34.6,106.4 -35.3,107.0 -36.0,107.7 -36.7,108.2 -37.4,108.8 -38.1,109.4 -38.8,109.9 -39.5,110.4 -40.2,110.9 -40.9,111.4 -41.6,111.8 -42.3,112.3 -43.1,112.7 -43.8,113.1 -44.5,113.5 -45.2,113.9 -46.0,114.2 -46.7,114.5 -47.4,114.8 -48.1,115.1 -48.8,115.4 -49.6,115.7 -50.3,115.9 -51.0,116.1 -51.7,116.3 -52.4,116.5 -53.2,116.6 -53.9,116.8 -54.6,116.9 -55.3,117.0 -56.0,117.1 -56.7,117.2 -57.4,117.2 -58.1,117.2 -58.8,117.3 -59.4,117.3 -60.1,117.2 -60.8,117.2 -61.5,117.1 -62.1,117.0 -62.8,116.9 -63.4,116.8 -64.1,116.7 -64.7,116.5 -65.3,116.4 -65.9,116.2 -66.5,116.0 -67.1,115.8 -67.7,115.5 -68.3,115.3 -68.9,115.0 -69.5,114.7 -70.0,114.4 -70.6,114.1 -71.1,113.7 -71.6,113.4 -72.1,113.0 -72.6,112.6 -73.1,112.2 -73.6,111.8 -74.1,111.4 -74.5,110.9 -75.0,110.5 -75.4,110.0 -75.8,109.5 -76.3,109.0 -76.7,108.5 -77.0,107.9 -77.4,107.4 -77.8,106.8 -78.1,106.2 -78.4,105.6 -78.8,105.0 -79.1,104.4 -79.3,103.8 -79.6,103.2 -79.9,102.5 -80.1,101.8 -80.3,101.2 -80.5,100.5 -80.7,99.8 -80.9,99.1 -81.1,98.4 -81.2,97.6 -81.4,96.9 -81.5,96.1 -81.6,95.4 -81.7,94.6 -81.7,93.8 -81.8,93.1 -81.8,92.3 -81.8,91.5 -81.8,90.7 -81.8,89.9 -81.8,89.0 -81.7,88.2 -81.7,87.4 -81.6,86.5 -81.5,85.7 -81.4,84.8 -81.2,84.0 -81.1,83.1 -80.9,82.2 -80.7,81.4 -80.5,80.5 -80.3,79.6 -80.0,78.7 -79.7,77.8 -79.5,76.9 -79.2,76.0 -78.8,75.2 -78.5,74.3 -78.2,73.4 -77.8,72.5 -77.4,71.6 -77.0,70.6 -76.6,69.7 -76.1,68.8 -75.7,67.9 -75.2,67.0 -74.7,66.1 -74.2,65.2 -73.6,64.3 -73.1,63.4 -72.5,62.5 -71.9,61.6 -71.3,60.7 -70.7,59.8 -70.1,59.0 -69.4,58.1 -68.8,57.2 -68.1,56.3 -67.4,55.4 -66.7,54.6 -65.9,53.7 -65.2,52.9 -64.4,52.0 -63.6,51.2 -62.8,50.3 -62.0,49.5 -61.2,48.6 -60.3,47.8 -59.4,47.0 -58.6,46.2 -57.7,45.4 -56.8,44.6 -55.8,43.8 -54.9,43.0 -53.9,42.3 -53.0,41.5 -52.0,40.8 -51.0,40.0 -50.0,39.3 -49.0,38.6 -47.9,37.8 -46.9,37.1 -45.8,36.4 -44.8,35.8 -43.7,35.1 -42.6,34.4 -41.5,33.8 -40.3,33.1 -39.2,32.5 -38.1,31.9 -36.9,31.3 -35.7,30.7 -34.6,30.1 -33.4,29.6 -32.2,29.0 -31.0,28.5 -29.8,27.9 -28.5,27.4 -27.3,26.9 -26.1,26.4 -24.8,26.0 -23.6,25.5 -22.3,25.0 -21.0,24.6 -19.8,24.2 -18.5,23.8 -17.2,23.4 -15.9,23.0 -14.6,22.7 -13.3,22.3 -11.9,22.0 -10.6,21.7 -9.3,21.4 -8.0,21.1 -6.6,20.8 -5.3,20.6 -3.9,20.3 -2.6,20.1 -1.2,19.9 0.1,19.7 1.5,19.5 2.8,19.3 4.2,19.2 5.5,19.1 6.9,18.9 8.3,18.8 9.6,18.8 11.0,18.7 12.3,18.6 13.7,18.6 15.1,18.6 16.4,18.6 17.8,18.6 19.1,18.6 20.5,18.7 21.8,18.7 23.2,18.8 24.5,18.9 25.9,19.0 27.2,19.1 28.6,19.2 29.9,19.4 31.2,19.5 32.5,19.7 33.8,19.9 35.2,20.1 36.5,20.3 37.8,20.6 39.1,20.8 40.3,21.1 41.6,21.4 42.9,21.7 44.2,22.0 45.4,22.3 46.7,22.7 47.9,23.0 49.2,23.4 50.4,23.8 51.6,24.2 52.8,24.6 54.0,25.0 55.2,25.4 56.4,25.9 57.5,26.3 58.7,26.8 59.8,27.3 61.0,27.8 62.1,28.3 63.2,28.8 64.3,29.4 65.4,29.9 66.4,30.5 67.5,31.0 68.5,31.6 69.6,32.2 70.6,32.8 71.6,33.4 72.6,34.0 73.6,34.7 74.5,35.3 75.5,35.9 76.4,36.6 77.4,37.3 78.3,37.9 79.2,38.6 80.0,39.3 80.9,40.0 81.7,40.7 82.6,41.4 83.4,42.1 84.2,42.9 85.0,43.6 85.7,44.3 86.5,45.1 87.2,45.8 87.9,46.6 88.6,47.3 89.3,48.1 90.0,48.9 90.6,49.7 91.2,50.4 91.9,51.2 92.5,52.0 93.0,52.8 93.6,53.6 94.1,54.4 94.7,55.2 95.2,56.0 95.6,56.8 96.1,57.6 96.6,58.4 97.0,59.2 97.4,60.0 97.8,60.8 98.2,61.6 98.5,62.4 98.9,63.2 99.2,64.0 99.5,64.8 99.8,65.6 100.1,66.4 100.3,67.2 100.6,68.0 100.8,68.8 101.0,69.5 101.1,70.3 101.3,71.1 101.4,71.9 101.6,72.6 101.7,73.4 101.7,74.2 101.8,74.9 101.9,75.7 101.9,76.4 101.9,77.2 101.9,77.9 101.9,78.6 101.8,79.3 101.8,80.0 101.7,80.7 101.6,81.4 101.5,82.1 101.4,82.8 101.2,83.5 101.1,84.1 100.9,84.8 100.7,85.4 100.5,86.1 100.3,86.7 100.0,87.3 99.7,87.9 99.5,88.5 99.2,89.1 98.9,89.7 98.6,90.2 98.2,90.8 97.9,91.3 97.5,91.8 97.1,92.3 96.7,92.8 96.3,93.3 95.9,93.8 95.4,94.2 95.0,94.7 94.5,95.1 94.1,95.5 93.6,95.9 93.1,96.3 92.5,96.7 92.0,97.1 91.5,97.4 90.9,97.7 90.4,98.1 89.8,98.4 89.2,98.6 88.6,98.9 88.0,99.2 87.4,99.4 86.7,99.6 86.1,99.8 85.4,100.0 84.8,100.2 84.1,100.3 83.4,100.5 82.8,100.6 82.1,100.7 81.4,100.8 80.7,100.8 79.9,100.9 79.2,100.9 78.5,100.9 77.7,100.9 77.0,100.9 76.3,100.9 75.5,100.8 74.7,100.8 74.0,100.7 73.2,100.6 72.4,100.4 71.6,100.3 70.9,100.1 70.1,99.9 69.3,99.7 68.5,99.5 67.7,99.3 66.9,99.0 66.1,98.7 65.3,98.5 64.5,98.1 63.7,97.8 62.9,97.5 62.1,97.1 61.3,96.7 60.4,96.3 59.6,95.9 58.8,95.5 58.0,95.0 57.2,94.5 56.4,94.0 55.6,93.5 54.8,93.0 54.0,92.4 53.2,91.9 52.4,91.3 51.6,90.7 50.8,90.1 50.1,89.4 49.3,88.8 48.5,88.1 47.7,87.4 47.0,86.7 46.2,86.0 45.5,85.3 44.7,84.5 44.0,83.7 43.2,83.0 42.5,82.1 41.8,81.3 41.1,80.5 40.4,79.6 39.7,78.8 39.0,77.9 38.3,77.0 37.6,76.1 36.9,75.2 36.3,74.2 35.6,73.3 35.0,72.3 34.3,71.3 33.7,70.3 33.1,69.3 32.5,68.3 31.9,67.2 31.3,66.2 30.8,65.1 30.2,64.0 29.7,62.9 29.1,61.8 28.6,60.7 28.1,59.6 27.6,58.5 27.1,57.3 26.6,56.2 26.2,55.0 25.7,53.8 25.3,52.6 24.8,51.4 24.4,50.2 24.0,49.0 23.7,47.8 23.3,46.5 22.9,45.3 22.6,44.0 22.2,42.8 21.9,41.5 21.6,40.2 21.3,38.9 21.1,37.7 20.8,36.4 20.6,35.1 20.3,33.7 20.1,32.4 19.9,31.1 19.8,29.8 19.6,28.5 19.4,27.1 19.3,25.8 19.2,24.4 19.1,23.1 19.0,21.8 18.9,20.4 18.8,19.1 18.8,17.7 18.8,16.3 18.8,15.0 18.8,13.6 18.8,12.3 18.8,10.9 18.9,9.5 18.9,8.2 19.0,6.8 19.1,5.4 19.2,4.1 19.4,2.7 19.4,2.1 19.5,1.4 19.7,0.0 19.8,-1.3 20.0,-2.7 20.2,-4.0 20.5,-5.4 20.7,-6.7 21.0,-8.1 21.2,-9.4 21.5,-10.7 21.8,-12.1 22.1,-13.4 22.4,-14.7 22.8,-16.0 23.1,-17.3 23.5,-18.6 23.9,-19.9 24.3,-21.2 24.7,-22.5 25.2,-23.7 25.6,-25.0 26.1,-26.3 26.5,-27.5 27.0,-28.7 27.5,-30.0 28.0,-31.2 28.5,-32.4 29.1,-33.6 29.6,-34.8 30.2,-36.0 30.8,-37.2 31.4,-38.3 32.0,-39.5 32.6,-40.6 33.2,-41.8 33.8,-42.9 34.5,-44.0 35.1,-45.1 35.8,-46.2 36.5,-47.2 37.2,-48.3 37.9,-49.3 38.6,-50.4 39.3,-51.4 40.0,-52.4 40.8,-53.4 41.5,-54.4 42.3,-55.3 43.0,-56.3 43.8,-57.2 44.6,-58.1 45.4,-59.0 46.2,-59.9 47.0,-60.8 47.8,-61.7 48.6,-62.5 49.4,-63.3 50.3,-64.1 51.1,-64.9 52.0,-65.7 52.8,-66.5 53.7,-67.2 54.5,-68.0 55.4,-68.7 56.3,-69.4 57.1,-70.1 58.0,-70.7 58.9,-71.4 59.8,-72.0 60.6,-72.6 61.5,-73.2 62.4,-73.8 63.3,-74.4 64.2,-74.9 65.1,-75.4 66.0,-75.9 66.9,-76.4 67.8,-76.9 68.7,-77.4 69.6,-77.8 70.5,-78.2 71.4,-78.6 72.3,-79.0 73.2,-79.4 74.1,-79.7 75.0,-80.1 75.9,-80.4 76.8,-80.7 77.6,-80.9 78.5,-81.2 79.4,-81.4 80.3,-81.7 81.1,-81.9 82.0,-82.1 82.9,-82.2 83.7,-82.4 84.6,-82.5 85.4,-82.6 86.3,-82.7 87.1,-82.8 87.9,-82.9 88.8,-82.9 89.6,-82.9 90.4,-83.0 91.2,-82.9 92.0,-82.9 92.8,-82.9 93.5,-82.8 94.3,-82.8 95.1,-82.7 95.8,-82.6 96.5,-82.4 97.3,-82.3 98.0,-82.1 98.7,-82.0 99.4,-81.8 100.1,-81.6 100.8,-81.4 101.4,-81.1 102.1,-80.9 102.7,-80.6 103.4,-80.4 104.0,-80.1 104.6,-79.8 105.2,-79.4 105.8,-79.1 106.4,-78.8 106.9,-78.4 107.4,-78.0 108.0,-77.6 108.5,-77.2 109.0,-76.8 109.5,-76.4 109.9,-75.9 110.4,-75.5 110.8,-75.0 111.3,-74.6 111.7,-74.1 112.1,-73.6 112.5,-73.1 112.8,-72.5 113.2,-72.0 113.5,-71.5 113.8,-70.9 114.1,-70.4 114.4,-69.8 114.7,-69.2 114.9,-68.6 115.1,-68.0 115.3,-67.4 115.5,-66.8 115.7,-66.2 115.9,-65.5 116.0,-64.9 116.2,-64.3 116.3,-63.6 116.4,-63.0 116.4,-62.3 116.5,-61.6 116.5,-61.0 116.5,-60.3 116.5,-59.6 116.5,-58.9 116.5,-58.2 116.4,-57.5 116.3,-56.8 116.2,-56.1 116.1,-55.4 116.0,-54.7 115.9,-53.9 115.7,-53.2 115.5,-52.5 115.3,-51.8 115.1,-51.1 114.8,-50.3 114.6,-49.6 114.3,-48.9 114.0,-48.2 113.7,-47.4 113.3,-46.7 113.0,-46.0 112.6,-45.2 112.2,-44.5 111.8,-43.8 111.4,-43.1 110.9,-42.4 110.4,-41.6 110.0,-40.9 109.5,-40.2 108.9,-39.5 108.4,-38.8 107.8,-38.1 107.3,-37.4 106.7,-36.7 106.1,-36.0 105.4,-35.3 104.8,-34.7 104.1,-34.0 103.4,-33.3 102.8,-32.6 102.0,-32.0 101.3,-31.3 100.6,-30.7 99.8,-30.1 99.0,-29.4 98.2,-28.8 97.4,-28.2 96.6,-27.6 95.7,-27.0 94.9,-26.4 94.0,-25.8 93.1,-25.3 92.2,-24.7 91.3,-24.2 90.4,-23.6 89.4,-23.1 88.5,-22.6 87.5,-22.1 86.5,-21.6 85.5,-21.1 84.5,-20.6 83.4,-20.1 82.4,-19.7 81.3,-19.2 80.3,-18.8 79.2,-18.4 78.1,-18.0 77.0,-17.6 75.9,-17.2 74.8,-16.8 73.6,-16.5 72.5,-16.1 71.3,-15.8 70.2,-15.5 69.0,-15.2 67.8,-14.9 66.6,-14.6 65.4,-14.3 64.2,-14.1 63.0,-13.9 61.7,-13.6 60.5,-13.4 59.3,-13.2 58.0,-13.1 56.7,-12.9 55.5,-12.8 54.2,-12.6 52.9,-12.5 51.6,-12.4 50.4,-12.3 49.1,-12.3 47.8,-12.2 46.5,-12.2 45.2,-12.1 43.8,-12.1 42.5,-12.1 41.2,-12.2 39.9,-12.2 38.6,-12.3 37.2,-12.3 35.9,-12.4 34.6,-12.5 33.2,-12.6 31.9,-12.8 30.6,-12.9 29.2,-13.1 27.9,-13.3 26.6,-13.5 25.2,-13.7 23.9,-13.9 22.6,-14.2 21.2,-14.4 19.9,-14.7 18.6,-15.0 17.3,-15.3 15.9,-15.6 14.6,-16.0 13.3,-16.3 12.0,-16.7 10.7,-17.1 9.4,-17.5 8.1,-17.9 6.8,-18.3 5.5,-18.8 4.2,-19.2 2.9,-19.7 1.7,-20.2 0.4,-20.7 -0.9,-21.2 -2.1,-21.8 -3.4,-22.3 -4.6,-22.9 -5.9,-23.4 -7.1,-24.0 -8.3,-24.6 -9.5,-25.2 -10.7,-25.9 -11.9,-26.5 -13.1,-27.2 -14.3,-27.8 -15.4,-28.5 -16.6,-29.2 -17.7,-29.9 -18.8,-30.6 -20.0,-31.4 -21.1,-32.1 -22.2,-32.8 -23.3,-33.6 -24.3,-34.4 -25.4,-35.2 -26.4,-36.0 -27.5,-36.8 -28.5,-37.6 -29.5,-38.4 -30.5,-39.2 -31.5,-40.1 -32.5,-40.9 -33.5,-41.8 -34.4,-42.7 -35.3,-43.5 -36.3,-44.4 -37.2,-45.3 -38.1,-46.2 -38.9,-47.1 -39.8,-48.0 -40.6,-49.0 -41.5,-49.9 -42.3,-50.8 -43.1,-51.8 -43.9,-52.7 -44.6,-53.7 -45.4,-54.6 -46.1,-55.6 -46.8,-56.6 -47.5,-57.5 -48.2,-58.5 -48.9,-59.5 -49.6,-60.5 -50.2,-61.5 -50.8,-62.4 -51.4,-63.4 -52.0,-64.4 -52.6,-65.4 -53.1,-66.4 -53.7,-67.4 -54.2,-68.4 -54.7,-69.4 -55.2,-70.4 -55.7,-71.4 -56.1,-72.4 -56.5,-73.4 -57.0,-74.4 -57.4,-75.4 -57.7,-76.4 -58.1,-77.4 -58.5,-78.4 -58.8,-79.4 -59.1,-80.4 -59.4,-81.4 -59.7,-82.4 -59.9,-83.4 -60.2,-84.3 -60.4,-85.3 -60.6,-86.3 -60.8,-87.2 -61.0,-88.2 -61.1,-89.2 -61.3,-90.1 -61.4,-91.0 -61.5,-92.0 -61.6,-92.9 -61.6,-93.8 -61.7,-94.8 -61.7,-95.7 -61.7,-96.6 -61.8,-97.5 -61.7,-98.3 -61.7,-99.2 -61.7,-100.1 -61.6,-100.9 -61.5,-101.8 -61.4,-102.6 -61.3,-103.5 -61.2,-104.3 -61.1,-105.1 -60.9,-105.9 -60.7,-106.7 -60.6,-107.5 -60.4,-108.2 -60.1,-109.0 -59.9,-109.7 -59.7,-110.5 -59.4,-111.2 -59.1,-111.9 -58.8,-112.6 -58.5,-113.3 -58.2,-113.9 -57.9,-114.6 -57.6,-115.2 -57.2,-115.8 -56.9,-116.4 -56.5,-117.0 -56.1,-117.6 -55.7,-118.2 -55.3,-118.7 -54.9,-119.3 -54.4,-119.8 -54.0,-120.3 -53.5,-120.8 -53.0,-121.3 -52.6,-121.7 -52.1,-122.2 -51.6,-122.6 -51.1,-123.0 -50.6,-123.4 -50.0,-123.8 -49.5,-124.1 -49.0,-124.5 -48.4,-124.8 -47.8,-125.1 -47.3,-125.4 -46.7,-125.7 -46.1,-125.9 -45.5,-126.2 -44.9,-126.4 -44.3,-126.6 -43.7,-126.8 -43.1,-126.9 -42.5,-127.1 -41.9,-127.2 -41.2,-127.3 -40.6,-127.4 -40.0,-127.5 -39.3,-127.5 -38.7,-127.6 -38.0,-127.6 -37.4,-127.6 -36.7,-127.5 -36.1,-127.5 -35.4,-127.4 -34.7,-127.4 -34.1,-127.3 -33.4,-127.1 -32.7,-127.0 -32.1,-126.8 -31.4,-126.7 -30.7,-126.5 -30.1,-126.3 -29.4,-126.0 -28.7,-125.8 -28.1,-125.5 -27.4,-125.2 -26.7,-124.9 -26.1,-124.6 -25.4,-124.2 -24.7,-123.9 -24.1,-123.5 -23.4,-123.1 -22.8,-122.7 -22.1,-122.2 -21.5,-121.8 -20.9,-121.3 -20.2,-120.8 -19.6,-120.3 -19.0,-119.8 -18.4,-119.2 -17.7,-118.7 -17.1,-118.1 -16.5,-117.5 -15.9,-116.9 -15.3,-116.2 -14.8,-115.6 -14.2,-114.9 -13.6,-114.2 -13.1,-113.5 -12.5,-112.8 -12.0,-112.1 -11.4,-111.3 -10.9,-110.5 -10.4,-109.8 -9.9,-109.0 -9.4,-108.2 -8.9,-107.3 -8.4,-106.5 -7.9,-105.6 -7.5,-104.7 -7.0,-103.9 -6.6,-103.0 -6.2,-102.0 -5.8,-101.1 -5.4,-100.2 -5.0,-99.2 -4.6,-98.2 -4.2,-97.3 -3.9,-96.3 -3.5,-95.3 -3.2,-94.2 -2.9,-93.2 -2.6,-92.2 -2.3,-91.1 -2.0,-90.0 -1.7,-89.0 -1.5,-87.9 -1.2,-86.8 -1.0,-85.7 -0.8,-84.5 -0.6,-83.4 -0.4,-82.3 -0.3,-81.1 -0.1,-80.0 0.0,-78.8 0.2,-77.6 0.3,-76.5 0.4,-75.3 0.4,-74.1 0.5,-72.9 0.5,-71.7 0.6,-70.5 0.6,-69.2 0.6,-68.0 0.6,-66.8 0.5,-65.5 0.5,-64.3 0.4,-63.0 0.4,-61.8 0.3,-60.5 0.2,-59.3 0.0,-58.0 -0.1,-56.7 -0.3,-55.5 -0.4,-54.2 -0.6,-52.9 -0.8,-51.7 -1.1,-50.4 -1.3,-49.1 -1.6,-47.8 -1.8,-46.5 -2.1,-45.3 -2.4,-44.0 -2.7,-42.7 -3.1,-41.4 -3.4,-40.1 -3.8,-38.9 -4.2,-37.6 -4.6,-36.3 -5.0,-35.0 -5.4,-33.8 -5.9,-32.5 -6.3,-31.2 -6.8,-30.0 -7.3,-28.7 -7.8,-27.5 -8.3,-26.2 -8.9,-25.0 -9.4,-23.7 -10.0,-22.5 -10.6,-21.3 -11.2,-20.1 -11.8,-18.8 -12.4,-17.6 -13.1,-16.4 -13.7,-15.2 -14.4,-14.0 -15.1,-12.9 -15.8,-11.7 -16.5,-10.5 -16.6,-10.3 -17.2,-9.4 -17.9,-8.2 -18.7,-7.1 -19.4,-5.9 -20.2,-4.8 -21.0,-3.7 -21.8,-2.6 -22.6,-1.5 -23.4,-0.4 -24.3,0.6 -25.1,1.7 -26.0,2.8 -26.9,3.8 -27.7,4.8 -28.6,5.8 -29.5,6.8 -30.4,7.8 -31.4,8.8 -32.3,9.8 -33.2,10.7 -34.2,11.7 -35.1,12.6 -36.1,13.5 -37.1,14.4 -38.1,15.3 -39.1,16.2 -40.1,17.1 -41.1,17.9 -42.1,18.7 -43.1,19.6 -44.1,20.4 -45.2,21.1 -46.2,21.9 -47.3,22.7 -48.3,23.4 -49.4,24.2 -50.5,24.9 -51.5,25.6 -52.6,26.2 -53.7,26.9 -54.8,27.6 -55.8,28.2 -56.9,28.8 -58.0,29.4 -59.1,30.0 -60.2,30.6 -61.3,31.1 -62.4,31.6 -63.5,32.2 -64.6,32.7 -65.7,33.2 -66.8,33.6 -67.9,34.1 -69.0,34.5 -70.1,34.9 -71.2,35.3 -72.3,35.7 -73.4,36.1 -74.5,36.4 -75.6,36.8 -76.7,37.1 -77.8,37.4 -78.9,37.7 -80.0,37.9 -81.1,38.2 -82.2,38.4 -83.3,38.6 -84.3,38.8 -85.4,39.0 -86.5,39.2 -87.5,39.3 -88.6,39.4 -89.6,39.6 -90.7,39.7 -91.7,39.7 -92.7,39.8 -93.7,39.8 -94.7,39.9 -95.8,39.9 -96.7,39.9 -97.7,39.9 -98.7,39.8 -99.7,39.8 -100.7,39.7 -101.6,39.7 -102.6,39.6 -103.5,39.5 -104.4,39.3 -105.3,39.2 -106.2,39.0 -107.1,38.9 -108.0,38.7 -108.9,38.5 -109.7,38.3 -110.6,38.1 -111.4,37.8 -112.2,37.6 -113.0,37.3 -113.8,37.0 -114.6,36.7 -115.4,36.4 -116.2,36.1 -116.9,35.8 -117.6,35.4 -118.3,35.1 -119.0,34.7 -119.7,34.3 -120.4,33.9 -121.1,33.5 -121.7,33.1 -122.3,32.7 -122.9,32.3 -123.5,31.8 -124.1,31.4 -124.7,30.9 -125.2,30.4 -125.7,29.9 -126.3,29.4 -126.7,28.9 -127.2,28.4 -127.7,27.9 -128.1,27.4 -128.6,26.9 -129.0,26.3 -129.4,25.8 -129.7,25.2 -130.1,24.7 -130.4,24.1 -130.7,23.5 -131.0,22.9 -131.3,22.3 -131.6,21.7 -131.8,21.2 -132.1,20.5 -132.3,19.9 -132.5,19.3 -132.6,18.7 -132.8,18.1 -132.9,17.5 -133.0,16.9 -133.1,16.2 -133.2,15.6 -133.3,15.0 -133.3,14.3 -133.3,13.7 -133.3,13.1 -133.3,12.4 -133.3,11.8 -133.2,11.1 -133.2,10.5 -133.1,9.9 -132.9,9.2 -132.8,8.6 -132.7,8.0 -132.5,7.3 -132.3,6.7 -132.1,6.1 -131.9,5.4 -131.6,4.8 -131.3,4.2 -131.1,3.6 -130.8,2.9 -130.4,2.3 -130.1,1.7 -129.7,1.1 -129.4,0.5 -129.0,-0.1 -128.5,-0.7 -128.1,-1.2 -127.7,-1.8 -127.2,-2.4 -126.7,-3.0 -126.2,-3.5 -125.7,-4.1 -125.1,-4.6 -124.6,-5.2 -124.0,-5.7 -123.4,-6.2 -122.8,-6.7 -122.2,-7.2 -121.5,-7.7 -120.9,-8.2 -120.2,-8.7 -119.5,-9.2 -118.8,-9.6 -118.1,-10.1 -117.4,-10.5 -116.6,-11.0 -115.8,-11.4 -115.1,-11.8 -114.3,-12.2 -113.5,-12.6 -112.6,-13.0 -111.8,-13.3 -110.9,-13.7 -110.1,-14.0 -109.2,-14.3 -108.3,-14.7 -107.4,-15.0 -106.5,-15.2 -105.5,-15.5 -104.6,-15.8 -103.6,-16.0 -102.7,-16.3 -101.7,-16.5 -100.7,-16.7 -99.7,-16.9 -98.7,-17.1 -97.7,-17.3 -96.7,-17.4 -95.6,-17.5 -94.6,-17.7 -93.5,-17.8 -92.4,-17.9 -91.3,-17.9 -90.3,-18.0 -89.2,-18.1 -88.1,-18.1 -87.0,-18.1 -85.8,-18.1 -84.7,-18.1 -83.6,-18.1 -82.4,-18.0 -81.3,-18.0 -80.1,-17.9 -79.0,-17.8 -77.8,-17.7 -76.7,-17.5 -75.5,-17.4 -74.3,-17.2 -73.1,-17.1 -72.0,-16.9 -70.8,-16.7 -69.6,-16.4 -68.4,-16.2 -67.2,-15.9 -66.0,-15.7 -64.8,-15.4 -63.6,-15.1 -62.4,-14.7 -61.2,-14.4 -60.0,-14.0 -58.8,-13.7 -57.6,-13.3 -56.4,-12.9 -55.2,-12.5 -54.0,-12.0 -52.8,-11.6 -51.6,-11.1 -50.4,-10.6 -49.2,-10.1 -48.0,-9.6 -46.8,-9.0 -45.6,-8.5 -44.4,-7.9 -43.3,-7.3 -42.1,-6.7 -40.9,-6.1 -39.7,-5.5 -38.6,-4.9 -37.4,-4.2 -36.3,-3.5 -35.1,-2.8 -34.0,-2.1 -32.8,-1.4 -31.7,-0.7 -30.6,0.1 -29.5,0.8 -28.4,1.6 -27.3,2.4 -26.2,3.2 -25.1,4.0 -24.0,4.9 -23.0,5.7 -21.9,6.6 -20.8,7.4 -19.8,8.3 -18.8,9.2 -17.8,10.1 -16.8,11.0 -15.8,12.0 -14.8,12.9 -13.8,13.8 -12.8,14.8 -11.9,15.8 -10.9,16.8 -10.0,17.8 -9.1,18.8 -8.2,19.8 -7.3,20.8 -6.4,21.9 -5.5,22.9 -4.7,24.0 -3.8,25.0 -3.0,26.1 -2.2,27.2 -1.4,28.3 -0.6,29.4 0.2,30.5 1.0,31.6 1.7,32.7 2.5,33.8 3.2,35.0 3.9,36.1 4.6,37.2 5.3,38.4 5.9,39.5 6.6,40.7 7.2,41.9 7.8,43.0 8.4,44.2 9.0,45.4 9.6,46.6 10.1,47.7 10.6,48.9 11.2,50.1 11.7,51.3 12.2,52.5 12.6,53.7 13.1,54.9 13.5,56.1 13.9,57.3 14.3,58.5 14.7,59.7 15.1,60.9 15.5,62.1 15.8,63.3 16.1,64.5 16.4,65.7 16.7,66.9 17.0,68.1 17.3,69.2 17.5,70.4 17.7,71.6 17.9,72.8 18.1,74.0 18.3,75.1 18.5,76.3 18.6,77.5 18.7,78.6 18.8,79.8 18.9,80.9 19.0,82.1 19.1,83.2 19.1,84.4 19.2,85.5 19.2,86.6 19.2,87.7 19.2,88.8 19.1,89.9 19.1,91.0 19.0,92.1 18.9,93.2 18.8,94.2 18.7,95.3 18.6,96.3 18.5,97.4 18.3,98.4 18.1,99.4 18.0,100.4 17.8,101.4 17.6,102.4 17.3,103.3 17.1,104.3 16.8,105.2 16.6,106.2 16.3,107.1 16.0,108.0 15.7,108.9 15.4,109.8 15.1,110.7 14.7,111.5 14.4,112.4 14.0,113.2 13.6,114.0 13.2,114.8 12.8,115.6 12.4,116.4 12.0,117.1 11.6,117.9 11.1,118.6 10.7,119.3 10.2,120.0 9.8,120.7 9.3,121.4 8.8,122.0 8.3,122.6 7.8,123.3 7.3,123.9 6.7,124.4 6.2,125.0 5.7,125.6 5.1,126.1 4.6,126.6 4.0,127.1 3.5,127.6 2.9,128.0 2.3,128.5 1.7,128.9 1.1,129.3 0.5,129.7 -0.1,130.1 -0.7,130.4 -1.3,130.7 -1.9,131.1 -2.5,131.4 -3.1,131.6 -3.8,131.9 -4.4,132.1 -5.0,132.3 -5.6,132.5 -6.3,132.7 -6.9,132.9 -7.5,133.0 -8.2,133.2 -8.8,133.3 -9.4,133.3 -10.1,133.4 -10.7,133.5 -11.4,133.5 -12.0,133.5 -12.6,133.5 -13.3,133.5 -13.9,133.4 -14.5,133.3 -15.2,133.3 -15.8,133.1 -16.4,133.0 -17.0,132.9 -17.6,132.7 -18.3,132.5 -18.9,132.3 -19.5,132.1 -20.1,131.9 -20.7,131.6 -21.3,131.4 -21.8,131.1 -22.4,130.7 -23.0,130.4 -23.6,130.1 -24.1,129.7 -24.7,129.3 -25.2,128.9 -25.8,128.5 -26.3,128.1 -26.8,127.6 -27.3,127.1 -27.8,126.7 -28.3,126.2 -28.8,125.6 -29.3,125.1 -29.8,124.5 -30.3,124.0 -30.7,123.4 -31.1,122.8 -31.6,122.2 -32.0,121.5 -32.4,120.9 -32.8,120.2 -33.2,119.5 -33.6,118.8 -33.9,118.1 -34.3,117.4 -34.6,116.7 -35.0,115.9 -35.3,115.2 -35.6,114.4 -35.9,113.6 -36.2,112.8 -36.4,112.0 -36.7,111.1 -36.9,110.3 -37.1,109.4 -37.3,108.6 -37.5,107.7 -37.7,106.8 -37.9,105.9 -38.0,105.0 -38.2,104.1 -38.3,103.1 -38.4,102.2 -38.5,101.2 -38.6,100.3 -38.6,99.3 -38.7,98.3 -38.7,97.3 -38.7,96.3 -38.7,95.3 -38.7,94.3 -38.7,93.3 -38.6,92.3 -38.5,91.2 -38.5,90.2 -38.4,89.2 -38.2,88.1 -38.1,87.0 -38.0,86.0 -37.8,84.9 -37.6,83.8 -37.4,82.8 -37.2,81.7 -37.0,80.6 -36.7,79.5 -36.5,78.4 -36.2,77.3 -35.9,76.2 -35.6,75.1 -35.2,74.0 -34.9,72.9 -34.5,71.8 -34.1,70.7 -33.7,69.6 -33.3,68.5 -32.9,67.4 -32.4,66.2 -31.9,65.1 -31.4,64.0 -30.9,62.9 -30.4,61.8 -29.9,60.7 -29.3,59.6 -28.8,58.5 -28.2,57.4 -27.6,56.3 -27.0,55.2 -26.3,54.1 -25.7,53.0 -25.0,51.9 -24.3,50.9 -23.6,49.8 -22.9,48.7 -22.2,47.7 -21.4,46.6 -20.7,45.6 -19.9,44.5 -19.1,43.5 -18.3,42.4 -17.5,41.4 -16.7,40.4 -15.8,39.4 -15.0,38.4 -14.1,37.4 -13.2,36.4 -12.3,35.4 -11.4,34.4 -10.4,33.5 -9.5,32.5 -8.5,31.6 -7.6,30.6 -6.6,29.7 -5.6,28.8 -4.6,27.9 -3.6,27.0 -2.6,26.1 -1.5,25.2 -0.5,24.4 0.6,23.5 1.7,22.7 2.8,21.9 3.8,21.0 4.9,20.2 6.1,19.5 7.2,18.7 8.3,17.9 9.5,17.2 10.5,16.5 10.6,16.4 11.8,15.7 12.9,15.0 14.1,14.3 15.3,13.6 16.5,12.9 17.7,12.3 18.9,11.6 20.1,11.0 21.3,10.4 22.5,9.8 23.7,9.2 25.0,8.6 26.2,8.1 27.4,7.5 28.7,7.0 29.9,6.5 31.2,6.0 32.4,5.5 33.7,5.1 35.0,4.6 36.2,4.2 37.5,3.8 38.8,3.4 40.0,3.0 41.3,2.6 42.6,2.3 43.9,1.9 45.1,1.6 46.4,1.3 47.7,1.0 49.0,0.7 50.3,0.5 51.5,0.2 52.8,0.0 54.1,-0.2 55.3,-0.4 56.6,-0.6 57.9,-0.7 59.1,-0.9 60.4,-1.0 61.6,-1.1 62.9,-1.2 64.1,-1.3 65.4,-1.3 66.6,-1.4 67.9,-1.4 69.1,-1.4 70.3,-1.4 71.5,-1.4 72.7,-1.4 73.9,-1.3 75.1,-1.3 76.3,-1.2 77.5,-1.1 78.7,-1.0 79.8,-0.9 81.0,-0.7 82.2,-0.6 83.3,-0.4 84.4,-0.2 85.5,-0.1 86.7,0.2 87.8,0.4 88.9,0.6 89.9,0.9 91.0,1.1 92.1,1.4 93.1,1.7 94.2,2.0 95.2,2.3 96.2,2.6 97.2,3.0 98.2,3.3 99.2,3.7 100.1,4.1 101.1,4.5 102.0,4.9 102.9,5.3 103.8,5.7 104.7,6.2 105.6,6.6 106.5,7.1 107.3,7.5 108.2,8.0 109.0,8.5 109.8,9.0 110.6,9.5 111.4,10.0 112.1,10.5 112.9,11.1 113.6,11.6 114.3,12.2 115.0,12.7 115.7,13.3 116.3,13.9 117.0,14.4 117.6,15.0 118.2,15.6 118.8,16.2 119.4,16.8 119.9,17.4 120.5,18.1 121.0,18.7 121.5,19.3 122.0,19.9 122.4,20.6 122.9,21.2 123.3,21.9 123.7,22.5 124.1,23.1 124.5,23.8 124.9,24.5 125.2,25.1 125.5,25.8 125.8,26.4 126.1,27.1 126.4,27.8 126.6,28.4 126.8,29.1 127.0,29.8 127.2,30.4 127.4,31.1 127.5,31.8 127.6,32.4 127.8,33.1 127.8,33.8 127.9,34.4 128.0,35.1 128.0,35.7 128.0,36.4 128.0,37.0 128.0,37.7 128.0,38.3 127.9,39.0 127.8,39.6 127.7,40.2 127.6,40.9 127.5,41.5 127.3,42.1 127.1,42.7 126.9,43.3 126.7,43.9 126.5,44.5 126.3,45.1 126.0,45.7 125.7,46.2 125.4,46.8 125.1,47.4 124.8,47.9 124.4,48.5 124.1,49.0 123.7,49.5 123.3,50.0 122.9,50.5 122.4,51.0 122.0,51.5 121.5,52.0 121.0,52.4 120.5,52.9 120.0,53.3 119.5,53.8 118.9,54.2 118.4,54.6 117.8,55.0 117.2,55.4 116.6,55.8 116.0,56.1 115.3,56.5 114.7,56.8 114.0,57.1 113.4,57.4 112.7,57.7 112.0,58.0 111.3,58.3 110.5,58.5 109.8,58.8 109.0,59.0 108.3,59.2 107.5,59.4 106.7,59.6 105.9,59.8 105.1,59.9 104.3,60.0 103.5,60.2 102.6,60.3 101.8,60.4 100.9,60.4 100.1,60.5 99.2,60.5 98.3,60.6 97.4,60.6 96.5,60.6 95.6,60.5 94.7,60.5 93.8,60.4 92.8,60.4 91.9,60.3 90.9,60.2 90.0,60.0 89.0,59.9 88.1,59.7 87.1,59.6 86.1,59.4 85.2,59.2 84.2,58.9 83.2,58.7 82.2,58.4 81.2,58.1 80.2,57.8 79.2,57.5 78.2,57.2 77.2,56.8 76.2,56.5 75.2,56.1 74.2,55.7 73.2,55.3 72.2,54.8 71.2,54.4 70.2,53.9 69.2,53.4 68.2,52.9 67.2,52.4 66.2,51.8 65.2,51.3 64.2,50.7 63.2,50.1 62.2,49.5 61.2,48.9 60.2,48.3 59.2,47.6 58.2,46.9 57.2,46.2 56.3,45.5 55.3,44.8 54.3,44.1 53.4,43.3 52.4,42.5 51.4,41.7 50.5,40.9 49.6,40.1 48.6,39.3 47.7,38.4 46.8,37.6 45.9,36.7 45.0,35.8 44.1,34.9 44.1,34.9 " style="fill:none; stroke:hsla(61.692093734943114,100%,100%,1); stroke-width: 4" /></svg>