<?xml version="1.0" encoding="UTF-8"?>
<svg xmlns="http://www.w3.org/2000/svg" viewBox="0 0 811 267">
  <g transform="translate(-361.8967286352299,-209.40000547841436)">
    <path d="M390.03,418.92c-5.62,15.08 -11.58,29.97 -18.26,44.61c-0.99,2.16 -3.58,13.45 -8.13,12.1c-1.28,-0.38 -2.03,-1.78 -1.62,-3.06c0.24,-0.74 1.57,-1.97 1.22,-1.42c-0.41,0.65 -0.59,2.11 -1.32,1.88c-0.43,-0.13 1.05,-3.87 1.1,-4.02c2.29,-5.69 5.61,-10.98 8.64,-16.3c0.41,-0.73 4.94,-8.95 5.22,-8.84c0.26,0.1 -1.24,6.63 -1.34,7.04c-1.74,7.01 -4.65,13.59 -7.67,20.12c-0.82,1.77 -2.37,6.16 -5,4.22c-3.29,-2.43 2.84,-7.67 3.74,-9.36c0.68,-1.26 1.32,-2.54 1.94,-3.84c6.88,-14.41 12.58,-29.41 18.15,-44.36c21.71,-58.35 38.91,-118.09 58.39,-177.17c3.65,-11.07 -29.4,109.44 -55.08,178.38z" fill="rgba(28, 28, 28, 1)"/>
    <path d="M474.54,275.9c17.2,43.25 35.78,85.94 53.97,128.78c6.6,15.55 13.5,31.13 18.77,47.2c0.07,0.21 3.19,10.23 3.02,10.3c-0.27,0.11 -4.93,-9.31 -5.01,-9.49c-7.39,-15.21 -13.41,-31.07 -20.02,-46.62c-22.19,-52.2 -45.87,-104.06 -65.38,-157.34c-2.67,-7.29 -5.63,-15.02 -7.57,-22.59c-1.06,-4.12 14.09,29.31 22.23,49.75z" fill="rgba(28, 28, 28, 1)"/>
    <path d="M465.54,357.37c0.58,-0.02 17.68,-0.4 17.74,0.37c0.03,0.34 -16.95,2.69 -17.47,2.76c-14.89,1.96 -30,3.78 -45.02,4.44c-3.49,0.15 25.92,-6.94 44.75,-7.56z" fill="rgba(28, 28, 28, 1)"/>
    <path d="M538.94,365.64c16.33,18.83 32.08,38.31 47.07,58.23c4.67,6.21 8.99,12.63 13.39,19.03c0.63,0.92 2.95,3.76 2.85,3.93c-2,3.33 -2.85,-1.58 -2.91,-2.15c-0.49,-4.7 0.82,-10.49 1.47,-15.09c2.35,-16.79 6.76,-33.55 13.76,-49.02c2.31,-5.11 4.95,-10.16 8.15,-14.78c0.75,-1.08 1.2,-3.78 2.37,-3.17c1.16,0.6 -0.97,2.43 -1.46,3.64c-2.08,5.14 -4.12,10.29 -6.07,15.49c-6.56,17.5 -11.95,35.55 -12.78,54.34c-0.1,2.3 1.25,13.77 -2.72,14.71c-3.38,0.8 -4.74,-3.93 -5.83,-5.84c-3.8,-6.62 -8.47,-12.82 -13.06,-18.89c-13.49,-17.82 -28.15,-34.67 -42.15,-52.09c-6.17,-7.68 -6.83,-13.8 -2.08,-8.33z" fill="rgba(28, 28, 28, 1)"/>
    <path d="M664.52,428.79c0.5,5.41 1.05,12.01 1.2,17.5c0.07,2.81 2.8,8.1 0.01,8.43c-2.79,0.32 -1.28,-5.46 -1.84,-8.21c-1.15,-5.7 -2.04,-11.58 -2.8,-17.33c-2.52,-19.07 -4.25,-38.34 -4.18,-57.58c0.02,-5.91 5.34,32.62 7.61,57.21z" fill="rgba(28, 28, 28, 1)"/>
    <path d="M647.71,319.12c-0.61,-0.16 -2.98,3.73 -3.53,2.89c-2.25,-3.44 2.88,-7.9 5.95,-5.64c1.82,1.34 3.88,5.75 1.29,7.44c-1.14,0.74 1.24,-3.38 -3.7,-4.69z" fill="rgba(28, 28, 28, 1)"/>
    <path d="M694.76,436.47c0.31,6.73 0.23,13.42 0.13,20.16c-0.02,1.16 0.39,6.37 -1.27,7.21c-4.35,2.2 -3.98,-6.42 -4,-6.58c-0.72,-7.19 -0.94,-14.52 -1.39,-21.73c-1.42,-22.79 -2.91,-46.26 0.64,-68.94c0.74,-4.71 1.9,-15.51 8.13,-16.84c7.77,-1.65 15.74,7.01 20.4,11.75c19.52,19.86 33.73,45.21 44.72,70.59c3.16,7.31 6.01,14.76 8.26,22.4c0.03,0.11 2.74,9.87 2.43,9.98c-0.1,0.04 -4.34,-9.12 -4.4,-9.23c-3.28,-7.18 -6.31,-14.47 -9.54,-21.68c-9.86,-21.98 -21.58,-43.38 -37.43,-61.66c-5.21,-6.01 -12.7,-15.01 -20.92,-17.18c-8.3,-2.19 -8.56,14.49 -9.02,19.18c-2.01,20.35 -0.93,40.98 0.63,61.32c0.55,7.21 1.31,14.38 2.09,21.57c0.19,1.75 1.71,3.98 0.49,5.25c-0.97,1 -2.98,-0.73 -3.71,-1.92c-0.36,-0.59 0.41,-6.63 0.43,-8.74c0.04,-5.18 -0.03,-9.47 -0.28,-14.69c-1.11,-22.58 -4.83,-44.9 -6.63,-67.42c-0.5,-6.27 8.89,38.39 10.22,67.2z" fill="rgba(28, 28, 28, 1)"/>
    <path d="M886.86,216.97c-25.28,0.74 -56.52,3.96 -76.35,21.74c-10.72,9.61 -15.98,23 -18.55,36.8c-4.09,21.94 -2.37,45.4 1.98,67.16c2.75,13.75 6.95,27.98 14.97,39.7c26.54,38.78 83.93,28.93 121.28,14.99c14.44,-5.39 27.94,-12.55 41.49,-19.82c0.21,-0.11 14.35,-7.75 14.42,-7.62c1.47,2.38 -4.23,3.67 -6.45,5.37c-4.52,3.48 -9.63,6.72 -14.55,9.56c-19.28,11.12 -40.42,19.51 -62.18,24.26c-14.49,3.16 -29.34,4.77 -44.16,3.38c-9.67,-0.91 -16.47,-2.28 -25.34,-6.04c-37.41,-15.88 -45.81,-61.54 -46.96,-97.92c-0.52,-16.35 0.26,-33.73 6.15,-49.23c16.49,-43.35 72.63,-47.14 112.06,-46.05c5.34,0.15 10.68,0.55 16.01,0.98c11.72,0.94 23.2,2.6 34.66,5.22c5.51,1.26 -39.82,-3.31 -68.48,-2.47z" fill="rgba(28, 28, 28, 1)"/>
    <path d="M1023.57,344.17c0.16,2.23 0.31,4.47 0.46,6.7c0.4,6.05 0.81,12.11 1.75,18.11c0.33,2.11 2.17,5.63 -0.83,6.81c-6.13,2.41 -2.67,-11.09 -2.19,-13.21c2.92,-12.89 9.85,-24.25 18.09,-34.43c3.38,-4.18 7.27,-9.15 13.27,-6.43c9.71,4.41 16.08,19.45 20.66,28.3c1.24,2.39 2.54,5.05 3.56,7.55c0.55,1.36 2.8,3.38 1.53,4.11c-1.26,0.73 -1.77,-2.31 -2.64,-3.47c-1.66,-2.23 -3.23,-4.44 -4.85,-6.7c-5.23,-7.29 -10.3,-14.83 -16.45,-21.39c-1.94,-2.07 -4.13,-5.45 -7.4,-3.86c-2.63,1.28 -5.39,5.32 -7.09,7.53c-5.88,7.61 -10.18,16.16 -12.17,25.6c-0.65,3.11 0.1,16.12 -5.11,16.57c-6.04,0.53 -3.24,-13.28 -3.26,-15.97c-0.01,-1.3 -0.29,-7.22 -0.4,-8.88c-0.15,-2.23 -0.31,-4.46 -0.47,-6.69c-2.2,-30.86 -5.59,-61.73 -6.38,-92.67c-0.21,-8.33 7.2,53.62 9.92,92.42z" fill="rgba(28, 28, 28, 1)"/>
    <path d="M1106.34,355.55c1.25,2.94 2.75,6.65 3.85,9.7c0.54,1.49 2.96,3.8 1.54,4.51c-1.42,0.71 -1.77,-2.64 -2.62,-3.97c-1.68,-2.63 -3.88,-6.25 -5.41,-8.91c-6.49,-11.18 -2.39,-13.18 2.65,-1.33z" fill="rgba(28, 28, 28, 1)"/>
    <path d="M1139.13,370.57c2.43,5 6.93,14.34 13.64,14.57c5.86,0.2 9.65,-7.6 11.45,-11.95c4.88,-11.8 5.26,-25.12 5.02,-37.7c-0.01,-0.44 -0.67,-14.27 -0.57,-14.28c2.51,-0.27 1.45,4.85 2,7.31c1.05,4.62 1.67,9.71 1.84,14.43c0.38,10.69 -0.81,21.97 -4.9,31.94c-2.12,5.18 -5.48,11.59 -11.24,13.57c-9.89,3.41 -17.15,-9.57 -20.52,-16.45c-7.4,-15.13 -11.59,-32.14 -14.24,-48.72c-0.81,-5.07 7.98,27.7 17.52,47.28z" fill="rgba(28, 28, 28, 1)"/>
    <path d="M1084.47,288.26c-0.21,-0.15 -3.02,-1.68 -3.45,-1.07c-0.06,0.09 1.35,5.14 1.73,5.44c1.18,0.93 4.3,0.63 3.98,2.09c-0.32,1.48 -3.03,0.62 -4.52,0.38c-4.47,-0.71 -7.27,-8.83 -4,-11.97c4.8,-4.61 11.18,3.68 11.24,8.04c0.04,2.99 -1.55,-0.51 -4.98,-2.92z" fill="rgba(28, 28, 28, 1)"/>
  </g>
</svg>